<?xml version="1.0" encoding="utf-8"?>
<!-- Generator: Adobe Illustrator 19.1.0, SVG Export Plug-In . SVG Version: 6.00 Build 0)  -->
<svg version="1.1" xmlns="http://www.w3.org/2000/svg" xmlns:xlink="http://www.w3.org/1999/xlink" x="0px" y="0px"
	 viewBox="0 0 412.1 412.1" style="enable-background:new 0 0 412.1 412.1;" xml:space="preserve">
<style type="text/css">
	.st0{fill:#EAD0A0;}
	.st1{fill:#583827;stroke:#583827;stroke-width:0.45;stroke-miterlimit:10;}
</style>
<g id="Layer_1">
	<g>
		
			<rect x="60.4" y="60.3" transform="matrix(0.7071 0.7071 -0.7071 0.7071 206.0482 -85.3487)" class="st0" width="291.4" height="291.4"/>
		<g>
			<g>
				<path class="st1" d="M91.4,184.1H77.3c-0.2,0-0.2,0.7-0.2,1l2.6,1c0.7,0.2,0.9,1,0.9,1.8v14.4l0.1,6.9c0,1.1-0.5,2.2-1.5,2.5
					l-2.1,0.4c0,0.5,0.1,0.9,0.2,0.9h13.2c0.2,0,0.2-0.7,0.2-1.1l-4-0.8c-0.8-0.2-1.1-0.6-1.1-1.4l-0.3-7.4v-15.9l4.2,0.1
					c4.5,0.1,6.4,3.6,6.4,7.2c0,4.2-2.2,6.7-6.7,6.8l-0.9,0v1.9h1.2c7.5,0,11.4-4.4,11.4-9.7C100.8,186.7,97.1,184.1,91.4,184.1"/>
				<path class="st1" d="M133.3,208.8l-8.9-25.8l-3.3,1.2l-10.5,25.2c-0.4,0.9-0.9,1.7-1.7,2.3L108,212c0,0.3,0,0.9,0.1,0.9h9.1
					c0.1,0,0.2-0.5,0.2-0.9l-2-0.6c-1.6-0.5-2.3-1.8-1.8-3.3l2.8-7.4h9.3l2.2,7.3c0.1,0.4,0.2,0.9,0.2,1.3c0,0.9-0.4,1.9-1.2,2.1
					l-2.7,0.5c0,0.5,0,0.9,0.1,0.9h11.4c0.2,0,0.2-0.5,0.2-0.9l-0.7-0.5C134.3,210.9,133.7,210.1,133.3,208.8 M117.2,198.5l3.1-8
					l1.2-3.4h0.2l1,3.5l2.4,7.9H117.2z"/>
				<path class="st1" d="M166.8,184.1c-0.2,0-0.2,0.7-0.2,1.1l2.3,0.8c0.9,0.3,1.3,1.5,1.3,2.5v13.9l0.7,3.6h-0.3l-15.7-22h-8.2
					c-0.1,0-0.1,0.7-0.1,1.1l2.5,0.8c0.8,0.3,1.3,1.2,1.3,2.1v14.3l-0.2,5.6c0,1.7-0.7,3.2-2.1,3.6L146,212c0,0.5,0,0.9,0.1,0.9h11
					c0.2,0,0.2-0.6,0.2-1l-3.4-1c-0.8-0.3-1-0.6-1-1.5l-0.1-7v-9.7l-0.2-3.4h0.2l17,25l3.4-1.1v-24.9c0-1.2,0.6-2.4,1.6-2.6l2.2-0.7
					c0-0.5-0.1-1-0.2-1H166.8z"/>
				<path class="st1" d="M210.7,209.7c-1.9,0.8-3.7,1.2-6.9,1.2c-6.4,0-10.9-4.9-10.9-12.6c0-8.5,4.2-12.2,9.9-12.2
					c3.9,0,6,1.8,7.1,4.8h1.3v-5.7c-1.5-0.8-3.6-1.6-8.2-1.6c-8.6,0-14.9,7.6-14.9,15.4c0,9.9,5.4,14.8,15.1,14.8
					c4,0,6.6-1.2,8.2-2.1L210.7,209.7z"/>
				<path class="st1" d="M250,209.5l-0.2-7.1v-14.9c0-1.1,0.4-1.4,1.2-1.7l2.2-0.6c0.1-0.6,0.1-1.2,0.1-1.2H242
					c-0.1,0-0.1,0.8-0.1,1.1l1.9,0.7c1.1,0.4,1.6,1.7,1.6,2.8v8.2h-14.4v-9.3c0-1.1,0.2-1.6,1.2-1.9l2.1-0.6c0-0.5-0.1-1.2-0.2-1.2
					h-11.5c-0.1,0-0.2,0.8-0.2,1.1l2.6,0.7c0.9,0.3,1.4,1.3,1.4,2.4v14l-0.1,6.2c0,1.2-0.6,2.6-1.7,3l-2.2,0.5c0,0.5,0,0.9,0.2,0.9
					h12.6c0.2,0,0.2-0.7,0.2-1.1l-3.2-0.7c-0.8-0.3-1.1-0.6-1.1-1.6l-0.1-7.1v-3.2h14.4v3.1l0,6.1c0,1.1-0.4,2.8-1.9,3.2l-1.7,0.3
					c0,0.5,0,1,0.1,1h12c0.2,0,0.2-0.7,0.2-1.1l-3-0.6C250.4,211,250,210.6,250,209.5"/>
				<path class="st1" d="M273.4,209.8l0-7.4v-13.8c0-1.4,0.4-2.6,1.7-2.9l1.6-0.4c0-0.5-0.1-1.2-0.2-1.2h-11.4
					c-0.1,0-0.2,0.7-0.1,1.1l1.9,0.6c1.5,0.5,2,1.6,2,2.9v13.7l-0.2,6.5c0,1.3-0.6,2.3-1.6,2.7L265,212c0,0.5,0,0.9,0.1,0.9h12
					c0.2,0,0.2-0.7,0.2-1.1l-2.8-0.5C273.6,211.2,273.4,210.9,273.4,209.8"/>
				<path class="st1" d="M286.3,190.5c0.8,0.1,0.9,0.2,1.4,0.1c0.4-2.4,1.3-4.2,3.3-4.2l5.9-0.1v16.6l0,5.7c0,1.3-0.5,2.6-1.5,2.8
					l-2.8,0.5c0,0.6,0.1,1,0.2,1h13.4c0.1,0,0.1-0.6,0.1-1l-3.4-0.6c-0.8-0.2-1.1-0.6-1.1-1.8l-0.3-6.6v-16.6l5.7,0.1
					c2.3,0,3.3,1.7,3.8,4.2c0.6,0,1.2,0,1.2-0.1v-6.4h-25.8V190.5z"/>
				<path class="st1" d="M346,211.8c-0.9-0.7-1.4-1.7-1.9-3l-8.9-25.8l-3.3,1.2l-10.5,25.2c-0.4,0.9-0.9,1.7-1.7,2.3l-0.9,0.4
					c0,0.3,0,0.9,0.1,0.9h9.1c0.1,0,0.2-0.5,0.2-0.9l-2-0.6c-1.6-0.5-2.3-1.8-1.8-3.3l2.8-7.4h9.3l2.2,7.3c0.1,0.4,0.2,0.9,0.2,1.3
					c0,0.9-0.4,1.9-1.2,2.1L335,212c0,0.5,0,0.9,0.1,0.9h11.4c0.2,0,0.2-0.5,0.2-0.9L346,211.8z M328.1,198.5l3.1-8l1.2-3.4h0.2
					l1,3.5l2.4,7.9H328.1z"/>
				<polygon class="st1" points="204.5,150.4 211.9,157.8 219.3,150.4 211.9,142.9 				"/>
				<polygon class="st1" points="204.5,246.1 211.9,253.5 219.3,246.1 211.9,238.7 				"/>
			</g>
			<g>
				<path class="st1" d="M158.6,298l0.2-2h0.5c0.3,1.5,1.1,2,2.4,2c0.7,0,1.5-0.5,1.5-1.3c0-1.7-4.2-1.5-4.2-4.3
					c0-1.6,1.5-2.8,3-2.8c1.2,0,2,0.2,2.5,0.5v1.8h-0.4c-0.3-1-1-1.6-2.1-1.6c-0.8,0-1.6,0.4-1.6,1.2c0,1.7,4.5,1.6,4.5,4.3
					c0,1.9-1.8,2.7-3.4,2.7C160.5,298.7,159.4,298.5,158.6,298"/>
				<path class="st1" d="M165.9,298.2l0.2-0.2c0.2-0.2,0.4-0.4,0.5-0.6l3.2-7.5l1.1-0.4l2.8,7.8c0.1,0.3,0.3,0.6,0.5,0.8l0.2,0.2
					c0,0.2,0,0.2-0.1,0.3h-3.7c0-0.1,0-0.2,0-0.3l0.7-0.2c0.3-0.1,0.4-0.3,0.4-0.6c0-0.1,0-0.3-0.1-0.4l-0.6-1.9h-2.8l-0.7,1.9
					c-0.1,0.1-0.1,0.3-0.1,0.4c0,0.3,0.2,0.5,0.5,0.7l0.6,0.3c0,0.1,0,0.2,0,0.3h-2.8C165.9,298.5,165.9,298.3,165.9,298.2
					 M171,294.4l-0.7-2l-0.3-1.1h-0.1l-0.4,1.1l-0.8,2.1H171z"/>
				<path class="st1" d="M175.7,297.7l4.6-7.1l-3,0.1c-0.4,0.1-0.6,0.6-0.8,1.3c-0.3,0-0.3,0-0.6,0v-2.1h6.3l0.2,0.6l-4.7,7.3l3-0.1
					c0.8,0,1.1-0.8,1.4-1.4l0.5,0.1l-0.3,2.2H176L175.7,297.7z"/>
				<path class="st1" d="M184,294.6c0-2.7,2-4.9,4.7-4.9c3,0,4.2,1.6,4.2,4.1c0,2.6-1.8,4.9-4.6,4.9
					C185.4,298.7,184,297.2,184,294.6 M191,294.2c0-2.2-0.8-3.7-2.5-3.7c-1.8,0-2.6,1.5-2.6,3.7c0,2.2,0.9,3.7,2.5,3.7
					C190.2,297.9,191,296.4,191,294.2 M187.2,288.8c1.1-0.4,2.2-0.9,3-1.5l0.5,1.1c-1,0.4-2.3,0.7-3.4,0.8L187.2,288.8z"/>
				<path class="st1" d="M196.3,291.9L196.3,291.9l0,1v2.4l0,2.1c0,0.3,0.1,0.4,0.3,0.5l1,0.3c0,0.1,0,0.2-0.1,0.4h-3.3
					c0-0.2,0-0.2,0-0.3l0.6-0.2c0.4-0.1,0.6-0.5,0.6-1.1l0-1.6v-4.2c0-0.3-0.1-0.5-0.4-0.7l-0.7-0.3c0-0.1,0-0.2,0-0.3h2.5l4.8,6.5
					h0.1l-0.1-1.3v-3.9c0-0.3-0.2-0.6-0.5-0.7l-0.7-0.2c0-0.1,0-0.2,0-0.3h3.1c0,0.2,0,0.2,0,0.3l-0.6,0.2c-0.3,0.1-0.5,0.4-0.5,0.8
					v7.4l-1.2,0.4L196.3,291.9z"/>
				<path class="st1" d="M208.9,294.2c0-2.4,2-4.6,4.6-4.6c1.3,0,2,0.2,2.6,0.5v1.8c-0.1,0-0.3,0-0.4,0c-0.3-0.9-1.1-1.5-2.3-1.5
					c-1.7,0-2.8,1.1-2.8,3.6c0,2.1,1.2,3.7,3.1,3.7c0.9,0,1.5-0.2,2.1-0.5l0.3,0.7c-0.6,0.4-1.5,0.7-2.6,0.7
					C210.5,298.7,208.9,297.2,208.9,294.2"/>
				<path class="st1" d="M223.5,297.9c-0.7-0.7-1.4-2.1-1.9-3.1c-0.1,0-0.2,0-0.4,0h-1l0,2.6c0,0.2,0.1,0.4,0.3,0.5l0.8,0.2
					c0,0.1,0,0.3-0.1,0.4h-3.8c0-0.2,0-0.2,0-0.4l0.5-0.2c0.3-0.1,0.5-0.3,0.5-0.8l0-2v-4.4c0-0.2-0.1-0.4-0.3-0.5l-0.8-0.3
					c0-0.1,0-0.2,0-0.3h4.3c1.7,0,3.1,0.7,3.1,2.4c0,0.9-0.5,1.8-1.5,2.3c0.3,0.5,0.8,1.6,1.3,2.3c0.5,0.7,1.1,1.3,1.7,1.6l0,0.4
					C225.6,298.8,224.4,298.8,223.5,297.9 M221.3,294.2c1.3,0,1.9-0.7,1.9-1.8c0-1.1-0.7-1.9-2.1-1.9l-0.7,0v3.7L221.3,294.2z"/>
				<path class="st1" d="M227.2,298.2l0.6-0.2c0.3-0.1,0.5-0.3,0.5-0.8l0-2v-4.1c0-0.4-0.1-0.7-0.5-0.8l-0.6-0.2c0-0.1,0-0.2,0-0.3
					h3.7c0,0.1,0,0.2,0,0.4l-0.5,0.1c-0.4,0.1-0.5,0.4-0.5,0.8v4.1l0,2.2c0,0.4,0.1,0.5,0.4,0.6l0.7,0.2c0,0.1,0,0.2,0,0.4h-3.8
					C227.2,298.4,227.2,298.4,227.2,298.2"/>
				<path class="st1" d="M232.5,294.6c0-2.7,2-4.9,4.7-4.9c3,0,4.2,1.6,4.2,4.1c0,2.6-1.8,4.9-4.6,4.9
					C233.9,298.7,232.5,297.2,232.5,294.6 M239.5,294.2c0-2.2-0.8-3.7-2.5-3.7c-1.8,0-2.6,1.5-2.6,3.7c0,2.2,0.9,3.7,2.5,3.7
					C238.7,297.9,239.5,296.4,239.5,294.2"/>
				<path class="st1" d="M242.7,298.2l0.5-0.2c0.4-0.1,0.6-0.3,0.6-0.7l0-2.1v-4.1c0-0.4-0.2-0.6-0.5-0.8l-0.6-0.2
					c0-0.1,0-0.2,0-0.3h3.7c0,0.2,0,0.2,0,0.4l-0.6,0.2c-0.4,0.1-0.5,0.3-0.5,0.6v4.2l0,2.7l2.1-0.1c0.8-0.1,1.3-0.7,1.6-1.5
					l0.4,0.1l-0.4,2.2h-6.5C242.7,298.4,242.7,298.3,242.7,298.2"/>
				<path class="st1" d="M250.7,298.2l0.5-0.2c0.4-0.1,0.6-0.3,0.6-0.7l0-2.1v-4.1c0-0.4-0.2-0.6-0.5-0.8l-0.6-0.2
					c0-0.1,0-0.2,0-0.3h3.7c0,0.2,0,0.2,0,0.4l-0.6,0.2c-0.4,0.1-0.5,0.3-0.5,0.6v4.2l0,2.7l2.1-0.1c0.8-0.1,1.3-0.7,1.6-1.5
					l0.4,0.1l-0.4,2.2h-6.5C250.7,298.4,250.7,298.3,250.7,298.2"/>
				<path class="st1" d="M258.5,298.2l0.2-0.2c0.2-0.2,0.4-0.4,0.5-0.6l3.2-7.5l1.1-0.4l2.8,7.8c0.1,0.3,0.3,0.6,0.5,0.8l0.2,0.2
					c0,0.2,0,0.2-0.1,0.3h-3.7c0-0.1,0-0.2,0-0.3l0.7-0.2c0.3-0.1,0.4-0.3,0.4-0.6c0-0.1,0-0.3-0.1-0.4l-0.6-1.9H261l-0.7,1.9
					c-0.1,0.1-0.1,0.3-0.1,0.4c0,0.3,0.2,0.5,0.5,0.7l0.6,0.3c0,0.1,0,0.2,0,0.3h-2.8C258.5,298.5,258.5,298.3,258.5,298.2
					 M263.5,294.4l-0.7-2l-0.3-1.1h-0.1l-0.4,1.1l-0.8,2.1H263.5z"/>
			</g>
		</g>
	</g>
</g>
<g id="guias">
</g>
</svg>
