<svg version="1.1" xmlns="http://www.w3.org/2000/svg" xmlns:xlink="http://www.w3.org/1999/xlink" viewBox="0 0 86.3 41.1" enable-background="new 0 0 86.3 41.1" xml:space="preserve">
	<g>
		<path fill="#FFFFFF" d="M69.3,12.9V7.5h-7.2V0h-7.5v7.5h-3.9v5.3v0.1h0.2h3.8v7.4v11.5c0.1,3.8,2.3,5.2,5.3,5.7
		c1,0.2,2.2,0.2,3.3,0.2c0.7,0,1.2,0,1.8,0c0.3,0,0.7,0,1,0c0.3,0,0.7-0.1,1-0.1v-2.8v-3c-0.4,0.1-0.6,0.1-0.9,0.1
		c-0.3,0-0.5,0-0.9,0c-1.6,0-2.4-0.2-2.8-1c-0.2-0.5-0.3-1.2-0.3-2.1V12.9H69.3z"/>
		<polygon fill="#FFFFFF" points="34.4,9.6 34.4,0 0,0 0,9.6 11.8,9.6 11.8,41.1 22.7,41.1 17.3,41.1 22.7,41.1 22.7,27.1 22.7,9.6
		"/>
		<path fill="#FFFFFF" d="M34.8,30.2h-7.3l3.7-10.3h0.1L34.8,30.2z M45,41.1l-3.5-9.3l-5.4-14.4l-1.7-4.5h-6.4l-5.4,14.2l-5.3,14h5.3
		h1l2.2-6.3h10.6l2.1,6.3H45z"/>
		<path fill="#FFFFFF" d="M76.1,30.2h-7.3l3.7-10.3h0.1L76.1,30.2z M86.3,41.1L75.7,12.9h-6.4L61,34.8l-1,2.8l-1.4,3.5h6.3l1.2-3.3
		l1-3h0h10.6l2.1,6.3H86.3z"/>
		<path fill="#FF8300" d="M69.3,12.9V7.5h-7.2V0h-7.5v7.5h-3.9v5.3v0.1h0.2h3.8v7.4v11.5c0.1,3.8,2.3,5.2,5.3,5.7
		c1,0.2,2.2,0.2,3.3,0.2c0.7,0,1.2,0,1.8,0c0.3,0,0.7,0,1,0c0.3,0,0.7-0.1,1-0.1v-2.8v-3c-0.4,0.1-0.6,0.1-0.9,0.1
		c-0.3,0-0.5,0-0.9,0c-1.6,0-2.4-0.2-2.8-1c-0.2-0.5-0.3-1.2-0.3-2.1V12.9H69.3z"/>
		<polygon fill="#B51783" points="34.4,9.6 34.4,0 0,0 0,9.6 11.8,9.6 11.8,41.1 22.7,41.1 17.3,41.1 22.7,41.1 22.7,27.1 22.7,9.6
		"/>
		<path fill="#B51783" d="M54.6,31.8V20.3c0-3.6-0.9-6.3-3.8-7.4h-0.2v-0.1c-0.9-0.3-2-0.5-3.3-0.5c-2.3,0-4.7,1.1-6,3.3h-0.1v-2.7
		h-5.2v4.5v14.4h5.4v-9.5c0-4,1.3-5.6,4.2-5.6c2.5,0,3.5,1.6,3.5,4.8v10.3H54.6z"/>
		<g>
			<g>
				<defs>
					<rect id="SVGID_1_" x="15.9" y="11.4" width="30.6" height="31.1"/>
				</defs>
				<clipPath id="SVGID_2_">
					<use xlink:href="#SVGID_1_"  overflow="visible"/>
				</clipPath>
				<g clip-path="url(#SVGID_2_)">
					<defs>
						<rect id="SVGID_3_" x="15.9" y="11.4" width="30.6" height="31.1"/>
					</defs>
					<clipPath id="SVGID_4_">
						<use xlink:href="#SVGID_3_"  overflow="visible"/>
					</clipPath>
					<path clip-path="url(#SVGID_4_)" fill="#EB0029" d="M34.8,30.2h-7.3l3.7-10.3h0.1L34.8,30.2z M45,41.1l-3.5-9.3l-5.4-14.4
					l-1.7-4.5h-6.4l-5.4,14.2l-5.3,14h5.3h1l2.2-6.3h10.6l2.1,6.3H45z"/>
				</g>
			</g>
		</g>
		<g>
			<g>
				<defs>
					<rect id="SVGID_5_" x="57.1" y="11.4" width="30.6" height="31.1"/>
				</defs>
				<clipPath id="SVGID_6_">
					<use xlink:href="#SVGID_5_"  overflow="visible"/>
				</clipPath>
				<g clip-path="url(#SVGID_6_)">
					<defs>
						<rect id="SVGID_7_" x="57.1" y="11.4" width="30.6" height="31.1"/>
					</defs>
					<clipPath id="SVGID_8_">
						<use xlink:href="#SVGID_7_"  overflow="visible"/>
					</clipPath>
					<path clip-path="url(#SVGID_8_)" fill="#FFB819" d="M76,30.2l-7.3,0l3.7-10.3h0.1L76,30.2z M86.2,41.1L75.8,12.9l-6.4,0L61,34.7
					l-1.1,2.8L58.5,41l6.3,0l1.2-3.3l1.1-2.9h0l10.6,0l2.1,6.3L86.2,41.1z"/>
				</g>
			</g>
		</g>
	</g>
</svg>
